<svg xmlns="http://www.w3.org/2000/svg" version="1.1" xmlns:xlink="http://www.w3.org/1999/xlink" xmlns:svgjs="http://svgjs.com/svgjs" width="1440" height="1080" preserveAspectRatio="none" viewBox="0 0 1440 1080"><g mask="url(&quot;#SvgjsMask1004&quot;)" fill="none"><rect width="1440" height="1080" x="0" y="0" fill="#0e2a47"></rect><path d="M71.08 -50.31L136.03 -12.81L136.03 62.19L71.08 99.69L6.13 62.19L6.13 -12.81zM136.03 62.19L200.99 99.69L200.99 174.69L136.03 212.19L71.08 174.69L71.08 99.69zM136.03 287.19L200.99 324.69L200.99 399.69L136.03 437.19L71.08 399.69L71.08 324.69zM136.03 737.19L200.99 774.69L200.99 849.69L136.03 887.19L71.08 849.69L71.08 774.69zM136.03 962.19L200.99 999.69L200.99 1074.69L136.03 1112.19L71.08 1074.69L71.08 999.69zM330.89 -50.31L395.85 -12.81L395.85 62.19L330.89 99.69L265.94 62.19L265.94 -12.81zM395.85 62.19L460.8 99.69L460.8 174.69L395.85 212.19L330.89 174.69L330.89 99.69zM460.8 -50.31L525.76 -12.81L525.76 62.19L460.8 99.69L395.85 62.19L395.85 -12.81zM525.76 62.19L590.71 99.69L590.71 174.69L525.76 212.19L460.8 174.69L460.8 99.69zM460.8 624.69L525.76 662.19L525.76 737.19L460.8 774.69L395.85 737.19L395.85 662.19zM460.8 849.69L525.76 887.19L525.76 962.19L460.8 999.69L395.85 962.19L395.85 887.19zM590.71 -50.31L655.66 -12.81L655.66 62.19L590.71 99.69L525.76 62.19L525.76 -12.81zM655.66 62.19L720.62 99.69L720.62 174.69L655.66 212.19L590.71 174.69L590.71 99.69zM590.71 174.69L655.66 212.19L655.66 287.19L590.71 324.69L525.76 287.19L525.76 212.19zM590.71 399.69L655.66 437.19L655.66 512.19L590.71 549.69L525.76 512.19L525.76 437.19zM590.71 849.69L655.66 887.19L655.66 962.19L590.71 999.69L525.76 962.19L525.76 887.19zM590.71 1074.69L655.66 1112.19L655.66 1187.19L590.71 1224.69L525.76 1187.19L525.76 1112.19zM720.62 399.69L785.57 437.19L785.57 512.19L720.62 549.69L655.66 512.19L655.66 437.19zM785.57 512.19L850.53 549.69L850.53 624.69L785.57 662.19L720.62 624.69L720.62 549.69zM720.62 624.69L785.57 662.19L785.57 737.19L720.62 774.69L655.66 737.19L655.66 662.19zM720.62 849.69L785.57 887.19L785.57 962.19L720.62 999.69L655.66 962.19L655.66 887.19zM785.57 962.19L850.53 999.69L850.53 1074.69L785.57 1112.19L720.62 1074.69L720.62 999.69zM915.48 62.19L980.43 99.69L980.43 174.69L915.48 212.19L850.52 174.69L850.52 99.69zM915.48 287.19L980.43 324.69L980.43 399.69L915.48 437.19L850.52 399.69L850.52 324.69zM915.48 737.19L980.43 774.69L980.43 849.69L915.48 887.19L850.52 849.69L850.52 774.69zM850.52 1074.69L915.48 1112.19L915.48 1187.19L850.52 1224.69L785.57 1187.19L785.57 1112.19zM1045.39 62.19L1110.34 99.69L1110.34 174.69L1045.39 212.19L980.43 174.69L980.43 99.69zM980.43 174.69L1045.39 212.19L1045.39 287.19L980.43 324.69L915.48 287.19L915.48 212.19zM1045.39 512.19L1110.34 549.69L1110.34 624.69L1045.39 662.19L980.43 624.69L980.43 549.69zM1045.39 737.19L1110.34 774.69L1110.34 849.69L1045.39 887.19L980.43 849.69L980.43 774.69zM980.43 849.69L1045.39 887.19L1045.39 962.19L980.43 999.69L915.48 962.19L915.48 887.19zM980.43 1074.69L1045.39 1112.19L1045.39 1187.19L980.43 1224.69L915.48 1187.19L915.48 1112.19zM1110.34 -50.31L1175.29 -12.81L1175.29 62.19L1110.34 99.69L1045.39 62.19L1045.39 -12.81zM1175.29 62.19L1240.25 99.69L1240.25 174.69L1175.29 212.19L1110.34 174.69L1110.34 99.69zM1110.34 399.69L1175.29 437.19L1175.29 512.19L1110.34 549.69L1045.39 512.19L1045.39 437.19zM1175.29 512.19L1240.25 549.69L1240.25 624.69L1175.29 662.19L1110.34 624.69L1110.34 549.69zM1110.34 1074.69L1175.29 1112.19L1175.29 1187.19L1110.34 1224.69L1045.39 1187.19L1045.39 1112.19zM1305.2 62.19L1370.15 99.69L1370.15 174.69L1305.2 212.19L1240.25 174.69L1240.25 99.69zM1240.25 399.69L1305.2 437.19L1305.2 512.19L1240.25 549.69L1175.29 512.19L1175.29 437.19zM1240.25 849.69L1305.2 887.19L1305.2 962.19L1240.25 999.69L1175.29 962.19L1175.29 887.19zM1435.11 62.19L1500.06 99.69L1500.06 174.69L1435.11 212.19L1370.15 174.69L1370.15 99.69zM1370.15 174.69L1435.11 212.19L1435.11 287.19L1370.15 324.69L1305.2 287.19L1305.2 212.19zM1565.02 62.19L1629.97 99.69L1629.97 174.69L1565.02 212.19L1500.06 174.69L1500.06 99.69zM1565.02 287.19L1629.97 324.69L1629.97 399.69L1565.02 437.19L1500.06 399.69L1500.06 324.69zM1565.02 512.19L1629.97 549.69L1629.97 624.69L1565.02 662.19L1500.06 624.69L1500.06 549.69zM1500.06 624.69L1565.02 662.19L1565.02 737.19L1500.06 774.69L1435.11 737.19L1435.11 662.19z" stroke="#03305d" stroke-width="2"></path><path d="M63.58 -50.31 a7.5 7.5 0 1 0 15 0 a7.5 7.5 0 1 0 -15 0zM128.53 -12.81 a7.5 7.5 0 1 0 15 0 a7.5 7.5 0 1 0 -15 0zM128.53 62.19 a7.5 7.5 0 1 0 15 0 a7.5 7.5 0 1 0 -15 0zM63.58 99.69 a7.5 7.5 0 1 0 15 0 a7.5 7.5 0 1 0 -15 0zM-1.37 62.19 a7.5 7.5 0 1 0 15 0 a7.5 7.5 0 1 0 -15 0zM-1.37 -12.81 a7.5 7.5 0 1 0 15 0 a7.5 7.5 0 1 0 -15 0zM193.49 99.69 a7.5 7.5 0 1 0 15 0 a7.5 7.5 0 1 0 -15 0zM193.49 174.69 a7.5 7.5 0 1 0 15 0 a7.5 7.5 0 1 0 -15 0zM128.53 212.19 a7.5 7.5 0 1 0 15 0 a7.5 7.5 0 1 0 -15 0zM63.58 174.69 a7.5 7.5 0 1 0 15 0 a7.5 7.5 0 1 0 -15 0zM128.53 287.19 a7.5 7.5 0 1 0 15 0 a7.5 7.5 0 1 0 -15 0zM193.49 324.69 a7.5 7.5 0 1 0 15 0 a7.5 7.5 0 1 0 -15 0zM193.49 399.69 a7.5 7.5 0 1 0 15 0 a7.5 7.5 0 1 0 -15 0zM128.53 437.19 a7.5 7.5 0 1 0 15 0 a7.5 7.5 0 1 0 -15 0zM63.58 399.69 a7.5 7.5 0 1 0 15 0 a7.5 7.5 0 1 0 -15 0zM63.58 324.69 a7.5 7.5 0 1 0 15 0 a7.5 7.5 0 1 0 -15 0zM128.53 737.19 a7.5 7.5 0 1 0 15 0 a7.5 7.5 0 1 0 -15 0zM193.49 774.69 a7.5 7.5 0 1 0 15 0 a7.5 7.5 0 1 0 -15 0zM193.49 849.69 a7.5 7.5 0 1 0 15 0 a7.5 7.5 0 1 0 -15 0zM128.53 887.19 a7.5 7.5 0 1 0 15 0 a7.5 7.5 0 1 0 -15 0zM63.58 849.69 a7.5 7.5 0 1 0 15 0 a7.5 7.5 0 1 0 -15 0zM63.58 774.69 a7.5 7.5 0 1 0 15 0 a7.5 7.5 0 1 0 -15 0zM128.53 962.19 a7.5 7.5 0 1 0 15 0 a7.5 7.5 0 1 0 -15 0zM193.49 999.69 a7.5 7.5 0 1 0 15 0 a7.5 7.5 0 1 0 -15 0zM193.49 1074.69 a7.5 7.5 0 1 0 15 0 a7.5 7.5 0 1 0 -15 0zM128.53 1112.19 a7.5 7.5 0 1 0 15 0 a7.5 7.5 0 1 0 -15 0zM63.58 1074.69 a7.5 7.5 0 1 0 15 0 a7.5 7.5 0 1 0 -15 0zM63.58 999.69 a7.5 7.5 0 1 0 15 0 a7.5 7.5 0 1 0 -15 0zM323.39 -50.31 a7.5 7.5 0 1 0 15 0 a7.5 7.5 0 1 0 -15 0zM388.35 -12.81 a7.5 7.5 0 1 0 15 0 a7.5 7.5 0 1 0 -15 0zM388.35 62.19 a7.5 7.5 0 1 0 15 0 a7.5 7.5 0 1 0 -15 0zM323.39 99.69 a7.5 7.5 0 1 0 15 0 a7.5 7.5 0 1 0 -15 0zM258.44 62.19 a7.5 7.5 0 1 0 15 0 a7.5 7.5 0 1 0 -15 0zM258.44 -12.81 a7.5 7.5 0 1 0 15 0 a7.5 7.5 0 1 0 -15 0zM453.3 99.69 a7.5 7.5 0 1 0 15 0 a7.5 7.5 0 1 0 -15 0zM453.3 174.69 a7.5 7.5 0 1 0 15 0 a7.5 7.5 0 1 0 -15 0zM388.35 212.19 a7.5 7.5 0 1 0 15 0 a7.5 7.5 0 1 0 -15 0zM323.39 174.69 a7.5 7.5 0 1 0 15 0 a7.5 7.5 0 1 0 -15 0zM453.3 -50.31 a7.5 7.5 0 1 0 15 0 a7.5 7.5 0 1 0 -15 0zM518.26 -12.81 a7.5 7.5 0 1 0 15 0 a7.5 7.5 0 1 0 -15 0zM518.26 62.19 a7.5 7.5 0 1 0 15 0 a7.5 7.5 0 1 0 -15 0zM583.21 99.69 a7.5 7.5 0 1 0 15 0 a7.5 7.5 0 1 0 -15 0zM583.21 174.69 a7.5 7.5 0 1 0 15 0 a7.5 7.5 0 1 0 -15 0zM518.26 212.19 a7.5 7.5 0 1 0 15 0 a7.5 7.5 0 1 0 -15 0zM453.3 624.69 a7.5 7.5 0 1 0 15 0 a7.5 7.5 0 1 0 -15 0zM518.26 662.19 a7.5 7.5 0 1 0 15 0 a7.5 7.5 0 1 0 -15 0zM518.26 737.19 a7.5 7.5 0 1 0 15 0 a7.5 7.5 0 1 0 -15 0zM453.3 774.69 a7.5 7.5 0 1 0 15 0 a7.5 7.5 0 1 0 -15 0zM388.35 737.19 a7.5 7.5 0 1 0 15 0 a7.5 7.5 0 1 0 -15 0zM388.35 662.19 a7.5 7.5 0 1 0 15 0 a7.5 7.5 0 1 0 -15 0zM453.3 849.69 a7.5 7.5 0 1 0 15 0 a7.5 7.5 0 1 0 -15 0zM518.26 887.19 a7.5 7.5 0 1 0 15 0 a7.5 7.5 0 1 0 -15 0zM518.26 962.19 a7.5 7.5 0 1 0 15 0 a7.5 7.5 0 1 0 -15 0zM453.3 999.69 a7.5 7.5 0 1 0 15 0 a7.5 7.5 0 1 0 -15 0zM388.35 962.19 a7.5 7.5 0 1 0 15 0 a7.5 7.5 0 1 0 -15 0zM388.35 887.19 a7.5 7.5 0 1 0 15 0 a7.5 7.5 0 1 0 -15 0zM583.21 -50.31 a7.5 7.5 0 1 0 15 0 a7.5 7.5 0 1 0 -15 0zM648.16 -12.81 a7.5 7.5 0 1 0 15 0 a7.5 7.5 0 1 0 -15 0zM648.16 62.19 a7.5 7.5 0 1 0 15 0 a7.5 7.5 0 1 0 -15 0zM713.12 99.69 a7.5 7.5 0 1 0 15 0 a7.5 7.5 0 1 0 -15 0zM713.12 174.69 a7.5 7.5 0 1 0 15 0 a7.5 7.5 0 1 0 -15 0zM648.16 212.19 a7.5 7.5 0 1 0 15 0 a7.5 7.5 0 1 0 -15 0zM648.16 287.19 a7.5 7.5 0 1 0 15 0 a7.5 7.5 0 1 0 -15 0zM583.21 324.69 a7.5 7.5 0 1 0 15 0 a7.5 7.5 0 1 0 -15 0zM518.26 287.19 a7.5 7.5 0 1 0 15 0 a7.5 7.5 0 1 0 -15 0zM583.21 399.69 a7.5 7.5 0 1 0 15 0 a7.5 7.5 0 1 0 -15 0zM648.16 437.19 a7.5 7.5 0 1 0 15 0 a7.5 7.5 0 1 0 -15 0zM648.16 512.19 a7.5 7.5 0 1 0 15 0 a7.5 7.5 0 1 0 -15 0zM583.21 549.69 a7.5 7.5 0 1 0 15 0 a7.5 7.5 0 1 0 -15 0zM518.26 512.19 a7.5 7.5 0 1 0 15 0 a7.5 7.5 0 1 0 -15 0zM518.26 437.19 a7.5 7.5 0 1 0 15 0 a7.5 7.5 0 1 0 -15 0zM583.21 849.69 a7.5 7.5 0 1 0 15 0 a7.5 7.5 0 1 0 -15 0zM648.16 887.19 a7.5 7.5 0 1 0 15 0 a7.5 7.5 0 1 0 -15 0zM648.16 962.19 a7.5 7.5 0 1 0 15 0 a7.5 7.5 0 1 0 -15 0zM583.21 999.69 a7.5 7.5 0 1 0 15 0 a7.5 7.5 0 1 0 -15 0zM583.21 1074.69 a7.5 7.5 0 1 0 15 0 a7.5 7.5 0 1 0 -15 0zM648.16 1112.19 a7.5 7.5 0 1 0 15 0 a7.5 7.5 0 1 0 -15 0zM648.16 1187.19 a7.5 7.5 0 1 0 15 0 a7.5 7.5 0 1 0 -15 0zM583.21 1224.69 a7.5 7.5 0 1 0 15 0 a7.5 7.5 0 1 0 -15 0zM518.26 1187.19 a7.5 7.5 0 1 0 15 0 a7.5 7.5 0 1 0 -15 0zM518.26 1112.19 a7.5 7.5 0 1 0 15 0 a7.5 7.5 0 1 0 -15 0zM713.12 399.69 a7.5 7.5 0 1 0 15 0 a7.5 7.5 0 1 0 -15 0zM778.07 437.19 a7.5 7.5 0 1 0 15 0 a7.5 7.5 0 1 0 -15 0zM778.07 512.19 a7.5 7.5 0 1 0 15 0 a7.5 7.5 0 1 0 -15 0zM713.12 549.69 a7.5 7.5 0 1 0 15 0 a7.5 7.5 0 1 0 -15 0zM843.03 549.69 a7.5 7.5 0 1 0 15 0 a7.5 7.5 0 1 0 -15 0zM843.03 624.69 a7.5 7.5 0 1 0 15 0 a7.5 7.5 0 1 0 -15 0zM778.07 662.19 a7.5 7.5 0 1 0 15 0 a7.5 7.5 0 1 0 -15 0zM713.12 624.69 a7.5 7.5 0 1 0 15 0 a7.5 7.5 0 1 0 -15 0zM778.07 737.19 a7.5 7.5 0 1 0 15 0 a7.5 7.5 0 1 0 -15 0zM713.12 774.69 a7.5 7.5 0 1 0 15 0 a7.5 7.5 0 1 0 -15 0zM648.16 737.19 a7.5 7.5 0 1 0 15 0 a7.5 7.5 0 1 0 -15 0zM648.16 662.19 a7.5 7.5 0 1 0 15 0 a7.5 7.5 0 1 0 -15 0zM713.12 849.69 a7.5 7.5 0 1 0 15 0 a7.5 7.5 0 1 0 -15 0zM778.07 887.19 a7.5 7.5 0 1 0 15 0 a7.5 7.5 0 1 0 -15 0zM778.07 962.19 a7.5 7.5 0 1 0 15 0 a7.5 7.5 0 1 0 -15 0zM713.12 999.69 a7.5 7.5 0 1 0 15 0 a7.5 7.5 0 1 0 -15 0zM843.03 999.69 a7.5 7.5 0 1 0 15 0 a7.5 7.5 0 1 0 -15 0zM843.03 1074.69 a7.5 7.5 0 1 0 15 0 a7.5 7.5 0 1 0 -15 0zM778.07 1112.19 a7.5 7.5 0 1 0 15 0 a7.5 7.5 0 1 0 -15 0zM713.12 1074.69 a7.5 7.5 0 1 0 15 0 a7.5 7.5 0 1 0 -15 0zM907.98 62.19 a7.5 7.5 0 1 0 15 0 a7.5 7.5 0 1 0 -15 0zM972.93 99.69 a7.5 7.5 0 1 0 15 0 a7.5 7.5 0 1 0 -15 0zM972.93 174.69 a7.5 7.5 0 1 0 15 0 a7.5 7.5 0 1 0 -15 0zM907.98 212.19 a7.5 7.5 0 1 0 15 0 a7.5 7.5 0 1 0 -15 0zM843.02 174.69 a7.5 7.5 0 1 0 15 0 a7.5 7.5 0 1 0 -15 0zM843.02 99.69 a7.5 7.5 0 1 0 15 0 a7.5 7.5 0 1 0 -15 0zM907.98 287.19 a7.5 7.5 0 1 0 15 0 a7.5 7.5 0 1 0 -15 0zM972.93 324.69 a7.5 7.5 0 1 0 15 0 a7.5 7.5 0 1 0 -15 0zM972.93 399.69 a7.5 7.5 0 1 0 15 0 a7.5 7.5 0 1 0 -15 0zM907.98 437.19 a7.5 7.5 0 1 0 15 0 a7.5 7.5 0 1 0 -15 0zM843.02 399.69 a7.5 7.5 0 1 0 15 0 a7.5 7.5 0 1 0 -15 0zM843.02 324.69 a7.5 7.5 0 1 0 15 0 a7.5 7.5 0 1 0 -15 0zM907.98 737.19 a7.5 7.5 0 1 0 15 0 a7.5 7.5 0 1 0 -15 0zM972.93 774.69 a7.5 7.5 0 1 0 15 0 a7.5 7.5 0 1 0 -15 0zM972.93 849.69 a7.5 7.5 0 1 0 15 0 a7.5 7.5 0 1 0 -15 0zM907.98 887.19 a7.5 7.5 0 1 0 15 0 a7.5 7.5 0 1 0 -15 0zM843.02 849.69 a7.5 7.5 0 1 0 15 0 a7.5 7.5 0 1 0 -15 0zM843.02 774.69 a7.5 7.5 0 1 0 15 0 a7.5 7.5 0 1 0 -15 0zM843.02 1074.69 a7.5 7.5 0 1 0 15 0 a7.5 7.5 0 1 0 -15 0zM907.98 1112.19 a7.5 7.5 0 1 0 15 0 a7.5 7.5 0 1 0 -15 0zM907.98 1187.19 a7.5 7.5 0 1 0 15 0 a7.5 7.5 0 1 0 -15 0zM843.02 1224.69 a7.5 7.5 0 1 0 15 0 a7.5 7.5 0 1 0 -15 0zM778.07 1187.19 a7.5 7.5 0 1 0 15 0 a7.5 7.5 0 1 0 -15 0zM1037.89 62.19 a7.5 7.5 0 1 0 15 0 a7.5 7.5 0 1 0 -15 0zM1102.84 99.69 a7.5 7.5 0 1 0 15 0 a7.5 7.5 0 1 0 -15 0zM1102.84 174.69 a7.5 7.5 0 1 0 15 0 a7.5 7.5 0 1 0 -15 0zM1037.89 212.19 a7.5 7.5 0 1 0 15 0 a7.5 7.5 0 1 0 -15 0zM1037.89 287.19 a7.5 7.5 0 1 0 15 0 a7.5 7.5 0 1 0 -15 0zM1037.89 512.19 a7.5 7.5 0 1 0 15 0 a7.5 7.5 0 1 0 -15 0zM1102.84 549.69 a7.5 7.5 0 1 0 15 0 a7.5 7.5 0 1 0 -15 0zM1102.84 624.69 a7.5 7.5 0 1 0 15 0 a7.5 7.5 0 1 0 -15 0zM1037.89 662.19 a7.5 7.5 0 1 0 15 0 a7.5 7.5 0 1 0 -15 0zM972.93 624.69 a7.5 7.5 0 1 0 15 0 a7.5 7.5 0 1 0 -15 0zM972.93 549.69 a7.5 7.5 0 1 0 15 0 a7.5 7.5 0 1 0 -15 0zM1037.89 737.19 a7.5 7.5 0 1 0 15 0 a7.5 7.5 0 1 0 -15 0zM1102.84 774.69 a7.5 7.5 0 1 0 15 0 a7.5 7.5 0 1 0 -15 0zM1102.84 849.69 a7.5 7.5 0 1 0 15 0 a7.5 7.5 0 1 0 -15 0zM1037.89 887.19 a7.5 7.5 0 1 0 15 0 a7.5 7.5 0 1 0 -15 0zM1037.89 962.19 a7.5 7.5 0 1 0 15 0 a7.5 7.5 0 1 0 -15 0zM972.93 999.69 a7.5 7.5 0 1 0 15 0 a7.5 7.5 0 1 0 -15 0zM907.98 962.19 a7.5 7.5 0 1 0 15 0 a7.5 7.5 0 1 0 -15 0zM972.93 1074.69 a7.5 7.5 0 1 0 15 0 a7.5 7.5 0 1 0 -15 0zM1037.89 1112.19 a7.5 7.5 0 1 0 15 0 a7.5 7.5 0 1 0 -15 0zM1037.89 1187.19 a7.5 7.5 0 1 0 15 0 a7.5 7.5 0 1 0 -15 0zM972.93 1224.69 a7.5 7.5 0 1 0 15 0 a7.5 7.5 0 1 0 -15 0zM1102.84 -50.31 a7.5 7.5 0 1 0 15 0 a7.5 7.5 0 1 0 -15 0zM1167.79 -12.81 a7.5 7.5 0 1 0 15 0 a7.5 7.5 0 1 0 -15 0zM1167.79 62.19 a7.5 7.5 0 1 0 15 0 a7.5 7.5 0 1 0 -15 0zM1037.89 -12.81 a7.5 7.5 0 1 0 15 0 a7.5 7.5 0 1 0 -15 0zM1232.75 99.69 a7.5 7.5 0 1 0 15 0 a7.5 7.5 0 1 0 -15 0zM1232.75 174.69 a7.5 7.5 0 1 0 15 0 a7.5 7.5 0 1 0 -15 0zM1167.79 212.19 a7.5 7.5 0 1 0 15 0 a7.5 7.5 0 1 0 -15 0zM1102.84 399.69 a7.5 7.5 0 1 0 15 0 a7.5 7.5 0 1 0 -15 0zM1167.79 437.19 a7.5 7.5 0 1 0 15 0 a7.5 7.5 0 1 0 -15 0zM1167.79 512.19 a7.5 7.5 0 1 0 15 0 a7.5 7.5 0 1 0 -15 0zM1037.89 437.19 a7.5 7.5 0 1 0 15 0 a7.5 7.5 0 1 0 -15 0zM1232.75 549.69 a7.5 7.5 0 1 0 15 0 a7.5 7.5 0 1 0 -15 0zM1232.75 624.69 a7.5 7.5 0 1 0 15 0 a7.5 7.5 0 1 0 -15 0zM1167.79 662.19 a7.5 7.5 0 1 0 15 0 a7.5 7.5 0 1 0 -15 0zM1102.84 1074.69 a7.5 7.5 0 1 0 15 0 a7.5 7.5 0 1 0 -15 0zM1167.79 1112.19 a7.5 7.5 0 1 0 15 0 a7.5 7.5 0 1 0 -15 0zM1167.79 1187.19 a7.5 7.5 0 1 0 15 0 a7.5 7.5 0 1 0 -15 0zM1102.84 1224.69 a7.5 7.5 0 1 0 15 0 a7.5 7.5 0 1 0 -15 0zM1297.7 62.19 a7.5 7.5 0 1 0 15 0 a7.5 7.5 0 1 0 -15 0zM1362.65 99.69 a7.5 7.5 0 1 0 15 0 a7.5 7.5 0 1 0 -15 0zM1362.65 174.69 a7.5 7.5 0 1 0 15 0 a7.5 7.5 0 1 0 -15 0zM1297.7 212.19 a7.5 7.5 0 1 0 15 0 a7.5 7.5 0 1 0 -15 0zM1232.75 399.69 a7.5 7.5 0 1 0 15 0 a7.5 7.5 0 1 0 -15 0zM1297.7 437.19 a7.5 7.5 0 1 0 15 0 a7.5 7.5 0 1 0 -15 0zM1297.7 512.19 a7.5 7.5 0 1 0 15 0 a7.5 7.5 0 1 0 -15 0zM1232.75 849.69 a7.5 7.5 0 1 0 15 0 a7.5 7.5 0 1 0 -15 0zM1297.7 887.19 a7.5 7.5 0 1 0 15 0 a7.5 7.5 0 1 0 -15 0zM1297.7 962.19 a7.5 7.5 0 1 0 15 0 a7.5 7.5 0 1 0 -15 0zM1232.75 999.69 a7.5 7.5 0 1 0 15 0 a7.5 7.5 0 1 0 -15 0zM1167.79 962.19 a7.5 7.5 0 1 0 15 0 a7.5 7.5 0 1 0 -15 0zM1167.79 887.19 a7.5 7.5 0 1 0 15 0 a7.5 7.5 0 1 0 -15 0zM1427.61 62.19 a7.5 7.5 0 1 0 15 0 a7.5 7.5 0 1 0 -15 0zM1492.56 99.69 a7.5 7.5 0 1 0 15 0 a7.5 7.5 0 1 0 -15 0zM1492.56 174.69 a7.5 7.5 0 1 0 15 0 a7.5 7.5 0 1 0 -15 0zM1427.61 212.19 a7.5 7.5 0 1 0 15 0 a7.5 7.5 0 1 0 -15 0zM1427.61 287.19 a7.5 7.5 0 1 0 15 0 a7.5 7.5 0 1 0 -15 0zM1362.65 324.69 a7.5 7.5 0 1 0 15 0 a7.5 7.5 0 1 0 -15 0zM1297.7 287.19 a7.5 7.5 0 1 0 15 0 a7.5 7.5 0 1 0 -15 0zM1557.52 62.19 a7.5 7.5 0 1 0 15 0 a7.5 7.5 0 1 0 -15 0zM1622.47 99.69 a7.5 7.5 0 1 0 15 0 a7.5 7.5 0 1 0 -15 0zM1622.47 174.69 a7.5 7.5 0 1 0 15 0 a7.5 7.5 0 1 0 -15 0zM1557.52 212.19 a7.5 7.5 0 1 0 15 0 a7.5 7.5 0 1 0 -15 0zM1557.52 287.19 a7.5 7.5 0 1 0 15 0 a7.5 7.5 0 1 0 -15 0zM1622.47 324.69 a7.5 7.5 0 1 0 15 0 a7.5 7.5 0 1 0 -15 0zM1622.47 399.69 a7.5 7.5 0 1 0 15 0 a7.5 7.5 0 1 0 -15 0zM1557.52 437.19 a7.5 7.5 0 1 0 15 0 a7.5 7.5 0 1 0 -15 0zM1492.56 399.69 a7.5 7.5 0 1 0 15 0 a7.5 7.5 0 1 0 -15 0zM1492.56 324.69 a7.5 7.5 0 1 0 15 0 a7.5 7.5 0 1 0 -15 0zM1557.52 512.19 a7.5 7.5 0 1 0 15 0 a7.5 7.5 0 1 0 -15 0zM1622.47 549.69 a7.5 7.5 0 1 0 15 0 a7.5 7.5 0 1 0 -15 0zM1622.47 624.69 a7.5 7.5 0 1 0 15 0 a7.5 7.5 0 1 0 -15 0zM1557.52 662.19 a7.5 7.5 0 1 0 15 0 a7.5 7.5 0 1 0 -15 0zM1492.56 624.69 a7.5 7.5 0 1 0 15 0 a7.5 7.5 0 1 0 -15 0zM1492.56 549.69 a7.5 7.5 0 1 0 15 0 a7.5 7.5 0 1 0 -15 0zM1557.52 737.19 a7.5 7.5 0 1 0 15 0 a7.5 7.5 0 1 0 -15 0zM1492.56 774.69 a7.5 7.5 0 1 0 15 0 a7.5 7.5 0 1 0 -15 0zM1427.61 737.19 a7.5 7.5 0 1 0 15 0 a7.5 7.5 0 1 0 -15 0zM1427.61 662.19 a7.5 7.5 0 1 0 15 0 a7.5 7.5 0 1 0 -15 0z" fill="#03305d"></path><path d="M66.26 341.84L109.56 366.84L109.56 416.84L66.26 441.84L22.96 416.84L22.96 366.84zM22.96 566.84L66.26 591.84L66.26 641.84L22.96 666.84L-20.34 641.84L-20.34 591.84zM66.26 641.84L109.56 666.84L109.56 716.84L66.26 741.84L22.96 716.84L22.96 666.84zM22.96 1016.84L66.26 1041.84L66.26 1091.84L22.96 1116.84L-20.34 1091.84L-20.34 1041.84zM152.87 491.84L196.17 516.84L196.17 566.84L152.87 591.84L109.56 566.84L109.56 516.84zM109.56 566.84L152.87 591.84L152.87 641.84L109.56 666.84L66.26 641.84L66.26 591.84zM109.56 716.84L152.87 741.84L152.87 791.84L109.56 816.84L66.26 791.84L66.26 741.84zM239.47 41.84L282.77 66.84L282.77 116.84L239.47 141.84L196.17 116.84L196.17 66.84zM196.17 116.84L239.47 141.84L239.47 191.84L196.17 216.84L152.87 191.84L152.87 141.84zM196.17 716.84L239.47 741.84L239.47 791.84L196.17 816.84L152.87 791.84L152.87 741.84zM196.17 1016.84L239.47 1041.84L239.47 1091.84L196.17 1116.84L152.87 1091.84L152.87 1041.84zM326.08 491.84L369.38 516.84L369.38 566.84L326.08 591.84L282.77 566.84L282.77 516.84zM326.08 791.84L369.38 816.84L369.38 866.84L326.08 891.84L282.77 866.84L282.77 816.84zM369.38 116.84L412.68 141.84L412.68 191.84L369.38 216.84L326.08 191.84L326.08 141.84zM412.68 641.84L455.99 666.84L455.99 716.84L412.68 741.84L369.38 716.84L369.38 666.84zM369.38 716.84L412.68 741.84L412.68 791.84L369.38 816.84L326.08 791.84L326.08 741.84zM455.99 116.84L499.29 141.84L499.29 191.84L455.99 216.84L412.68 191.84L412.68 141.84zM455.99 266.84L499.29 291.84L499.29 341.84L455.99 366.84L412.68 341.84L412.68 291.84zM499.29 341.84L542.59 366.84L542.59 416.84L499.29 441.84L455.99 416.84L455.99 366.84zM455.99 416.84L499.29 441.84L499.29 491.84L455.99 516.84L412.68 491.84L412.68 441.84zM455.99 1016.84L499.29 1041.84L499.29 1091.84L455.99 1116.84L412.68 1091.84L412.68 1041.84zM542.59 116.84L585.89 141.84L585.89 191.84L542.59 216.84L499.29 191.84L499.29 141.84zM542.59 416.84L585.89 441.84L585.89 491.84L542.59 516.84L499.29 491.84L499.29 441.84zM585.89 491.84L629.2 516.84L629.2 566.84L585.89 591.84L542.59 566.84L542.59 516.84zM672.5 41.84L715.8 66.84L715.8 116.84L672.5 141.84L629.2 116.84L629.2 66.84zM629.2 716.84L672.5 741.84L672.5 791.84L629.2 816.84L585.89 791.84L585.89 741.84zM629.2 1016.84L672.5 1041.84L672.5 1091.84L629.2 1116.84L585.89 1091.84L585.89 1041.84zM759.1 191.84L802.41 216.84L802.41 266.84L759.1 291.84L715.8 266.84L715.8 216.84zM715.8 416.84L759.1 441.84L759.1 491.84L715.8 516.84L672.5 491.84L672.5 441.84zM715.8 1016.84L759.1 1041.84L759.1 1091.84L715.8 1116.84L672.5 1091.84L672.5 1041.84zM845.71 41.84L889.01 66.84L889.01 116.84L845.71 141.84L802.41 116.84L802.41 66.84zM845.71 191.84L889.01 216.84L889.01 266.84L845.71 291.84L802.41 266.84L802.41 216.84zM802.41 266.84L845.71 291.84L845.71 341.84L802.41 366.84L759.1 341.84L759.1 291.84zM845.71 341.84L889.01 366.84L889.01 416.84L845.71 441.84L802.41 416.84L802.41 366.84zM845.71 491.84L889.01 516.84L889.01 566.84L845.71 591.84L802.41 566.84L802.41 516.84zM889.01 266.84L932.31 291.84L932.31 341.84L889.01 366.84L845.71 341.84L845.71 291.84zM932.31 341.84L975.62 366.84L975.62 416.84L932.31 441.84L889.01 416.84L889.01 366.84zM889.01 416.84L932.31 441.84L932.31 491.84L889.01 516.84L845.71 491.84L845.71 441.84zM932.31 941.84L975.62 966.84L975.62 1016.84L932.31 1041.84L889.01 1016.84L889.01 966.84zM975.62 -33.16L1018.92 -8.16L1018.92 41.84L975.62 66.84L932.31 41.84L932.31 -8.16zM975.62 116.84L1018.92 141.84L1018.92 191.84L975.62 216.84L932.31 191.84L932.31 141.84zM1018.92 341.84L1062.22 366.84L1062.22 416.84L1018.92 441.84L975.62 416.84L975.62 366.84zM1018.92 641.84L1062.22 666.84L1062.22 716.84L1018.92 741.84L975.62 716.84L975.62 666.84zM1018.92 791.84L1062.22 816.84L1062.22 866.84L1018.92 891.84L975.62 866.84L975.62 816.84zM975.62 866.84L1018.92 891.84L1018.92 941.84L975.62 966.84L932.31 941.84L932.31 891.84zM1062.22 416.84L1105.52 441.84L1105.52 491.84L1062.22 516.84L1018.92 491.84L1018.92 441.84zM1105.52 491.84L1148.83 516.84L1148.83 566.84L1105.52 591.84L1062.22 566.84L1062.22 516.84zM1062.22 866.84L1105.52 891.84L1105.52 941.84L1062.22 966.84L1018.92 941.84L1018.92 891.84zM1148.83 116.84L1192.13 141.84L1192.13 191.84L1148.83 216.84L1105.52 191.84L1105.52 141.84zM1192.13 191.84L1235.43 216.84L1235.43 266.84L1192.13 291.84L1148.83 266.84L1148.83 216.84zM1192.13 341.84L1235.43 366.84L1235.43 416.84L1192.13 441.84L1148.83 416.84L1148.83 366.84zM1148.83 416.84L1192.13 441.84L1192.13 491.84L1148.83 516.84L1105.52 491.84L1105.52 441.84zM1192.13 641.84L1235.43 666.84L1235.43 716.84L1192.13 741.84L1148.83 716.84L1148.83 666.84zM1192.13 791.84L1235.43 816.84L1235.43 866.84L1192.13 891.84L1148.83 866.84L1148.83 816.84zM1235.43 -33.16L1278.73 -8.16L1278.73 41.84L1235.43 66.84L1192.13 41.84L1192.13 -8.16zM1278.73 41.84L1322.04 66.84L1322.04 116.84L1278.73 141.84L1235.43 116.84L1235.43 66.84zM1278.73 941.84L1322.04 966.84L1322.04 1016.84L1278.73 1041.84L1235.43 1016.84L1235.43 966.84zM1365.34 341.84L1408.64 366.84L1408.64 416.84L1365.34 441.84L1322.04 416.84L1322.04 366.84zM1322.04 416.84L1365.34 441.84L1365.34 491.84L1322.04 516.84L1278.73 491.84L1278.73 441.84zM1322.04 716.84L1365.34 741.84L1365.34 791.84L1322.04 816.84L1278.73 791.84L1278.73 741.84zM1322.04 866.84L1365.34 891.84L1365.34 941.84L1322.04 966.84L1278.73 941.84L1278.73 891.84zM1408.64 266.84L1451.94 291.84L1451.94 341.84L1408.64 366.84L1365.34 341.84L1365.34 291.84zM1451.94 341.84L1495.25 366.84L1495.25 416.84L1451.94 441.84L1408.64 416.84L1408.64 366.84zM1408.64 566.84L1451.94 591.84L1451.94 641.84L1408.64 666.84L1365.34 641.84L1365.34 591.84zM1451.94 641.84L1495.25 666.84L1495.25 716.84L1451.94 741.84L1408.64 716.84L1408.64 666.84zM1451.94 791.84L1495.25 816.84L1495.25 866.84L1451.94 891.84L1408.64 866.84L1408.64 816.84zM1408.64 866.84L1451.94 891.84L1451.94 941.84L1408.64 966.84L1365.34 941.84L1365.34 891.84zM1408.64 1016.84L1451.94 1041.84L1451.94 1091.84L1408.64 1116.84L1365.34 1091.84L1365.34 1041.84z" stroke="rgba(6, 80, 156, 0.93)" stroke-width="2"></path></g><defs><mask id="SvgjsMask1004"><rect width="1440" height="1080" fill="#ffffff"></rect></mask></defs></svg>